<svg id="Layer_1" xmlns="http://www.w3.org/2000/svg" viewBox="0 0 2000 562.8"><style>.st0{fill:#fff}</style><path class="st0" d="M187.2 395.3l103.4-2.6 1.3-11.8-36.6-3.9s2.6-10.5 2.6-23.6V235.6c0-35.3 3.9-49.7 3.9-49.7v-2.6s-20.9 9.2-79.8 20.9v13.1h18.3c13.1 0 13.1 10.5 13.1 28.8v107.3c0 15.7-7.9 26.2-26.2 28.8v13.1zm44.5-247.4c15.7 0 27.5-11.8 27.5-26.2s-11.8-26.2-27.5-26.2-27.5 11.8-27.5 26.2c0 14.4 11.8 26.2 27.5 26.2zm113.8 247.4l98.2-2.6 1.3-11.8-31.4-3.9s2.6-10.5 2.6-23.6v-106c15.7-17 38-24.9 55-24.9s24.9 7.9 24.9 40.6v90.3c0 15.7-5.2 26.2-22.3 28.8v13.1l95.5-2.6 1.3-11.8-31.4-3.9s2.6-10.5 2.6-23.6v-95.5c0-22.3 38-35.3 56.3-35.3 15.7 0 24.9 7.9 24.9 40.6v90.3c0 15.7-5.2 26.2-22.3 28.8v13.1l99.5-2.6 1.3-11.8-36.6-3.9s2.6-10.5 2.6-23.6V248.7c0-43.2-19.6-58.9-49.7-58.9-34 0-60.2 22.3-77.2 47.1-2.6-32.7-20.9-47.1-48.4-47.1-35.3 0-61.5 24.9-77.2 45.8 1.3-39.3 5.2-51 5.2-51l-2.6-1.3s-31.4 13.1-78.5 20.9v13.1h18.3c13.1 0 13.1 10.5 13.1 28.8v107.3c0 15.7-6.5 26.2-26.2 28.8v13.1h1.2zM750 352.1c0 27.5 19.6 47.1 48.4 47.1 43.2 0 65.4-39.3 65.4-39.3v9.2c0 19.6 14.4 30.1 32.7 30.1 28.8 0 49.7-23.6 49.7-23.6l-6.5-10.5s-11.8 7.9-22.3 7.9c-9.2 0-11.8-6.5-11.8-20.9v-99.5c0-45.8-10.5-62.8-55-62.8-52.4 0-86.4 26.2-86.4 26.2l7.9 35.3h17s17-44.5 44.5-44.5c14.4 0 20.9 10.5 24.9 24.9 2.6 11.8 2.6 34 1.3 47.1l-14.4 2.6c-44.4 6.5-95.4 27.5-95.4 70.7zm69.4 17c-14.4 0-23.6-10.5-23.6-26.2 0-28.8 28.8-41.9 52.4-45.8l13.1-2.6v53.7c-10.5 9.1-27.5 20.9-41.9 20.9zm181.9-6.5c0 15.7 17 24.9 38 30.1-22.3 7.9-55 20.9-55 52.4 0 35.3 47.1 52.4 85.1 52.4 53.7 0 112.6-31.4 112.6-75.9 0-36.6-41.9-49.7-79.8-56.3-30.1-6.5-56.3-9.2-56.3-20.9 0-5.2 5.2-13.1 9.2-17 6.5 1.3 14.4 1.3 20.9 1.3 45.8 0 86.4-24.9 86.4-65.4 0-24.9-14.4-38-15.7-40.6 1.3 0 6.5 1.3 14.4 1.3h20.9l3.9-30.1s-14.4 5.2-28.8 5.2h-20.9c-22.3 0-34-9.2-60.2-9.2-44.5 0-85.1 24.9-85.1 70.7 0 35.3 23.6 56.3 55 65.4-15.8 6.4-44.6 15.6-44.6 36.6zm81.2 39.2c32.7 6.5 57.6 14.4 57.6 35.3 0 24.9-34 40.6-62.8 40.6-27.5 0-53.7-14.4-53.7-40.6 0-20.9 15.7-35.3 24.9-43.2 11.7 4 23.5 5.3 34 7.9zm-5.3-90.3c-28.8 0-40.6-24.9-40.6-52.4 0-26.2 10.5-52.4 39.3-52.4s41.9 28.8 41.9 56.3c-1.3 24.9-11.8 48.5-40.6 48.5zm163.6 83.8l103.4-2.6 1.3-11.8-36.6-3.9s2.6-10.5 2.6-23.6V235.6c0-35.3 3.9-49.7 3.9-49.7l-1.3-1.3s-20.9 9.2-79.8 20.9v13.1h18.3c13.1 0 13.1 10.5 13.1 28.8v106c0 15.7-7.9 26.2-26.2 28.8v13.1h1.3zm44.5-247.4c15.7 0 27.5-11.8 27.5-26.2s-11.8-26.2-27.5-26.2-27.5 11.8-27.5 26.2c.1 14.4 13.1 26.2 27.5 26.2zm113.9 247.4l99.5-2.6 1.3-11.8-31.4-3.9s2.6-10.5 2.6-23.6v-106c17-15.7 39.3-23.6 57.6-23.6 17 0 27.5 7.9 27.5 40.6v89c0 15.7-5.2 26.2-22.3 28.8v13.1l99.5-2.6 1.3-11.8-35.3-3.9s2.6-10.5 2.6-23.6V248.7c0-43.2-20.9-58.9-51-58.9-36.6 0-65.4 24.9-81.2 47.1 1.3-39.3 5.2-51 5.2-51l-1.3-1.3s-31.4 13.1-78.5 20.9v13.1h18.3c13.1 0 13.1 10.5 13.1 28.8v106c0 15.7-7.9 26.2-26.2 28.8v13.1h-1.3zm274.9-96.9c0 52.4 32.7 100.8 95.5 100.8 53.7 0 77.2-43.2 77.2-43.2l-5.2-10.5s-20.9 19.6-55 19.6c-47.1 0-66.8-35.3-69.4-73.3l3.9-5.2 102.1-14.4c9.2-1.3 23.6-6.5 23.6-6.5-1.3-51-39.3-74.6-77.2-74.6-53.6-1.3-95.5 47.1-95.5 107.3zm89-90.3c35.3 0 38 49.7 38 49.7l-83.8 10.5c2.6-31.4 18.3-60.2 45.8-60.2z"/><path class="st0" d="M9.2 9.1H0v553.7h2000V0H0v9.1h9.2v10.5h1971.2v523.6H19.6V9.1H9.2v10.5z"/></svg>